<?xml version="1.0" encoding="UTF-8"?>
<svg version="1.1" xmlns="http://www.w3.org/2000/svg" width="470" height="108">
<path d="M0 0 C155.1 0 310.2 0 470 0 C470 35.64 470 71.28 470 108 C314.9 108 159.8 108 0 108 C0 72.36 0 36.72 0 0 Z " fill="#252526" transform="translate(0,0)"/>
<path d="M0 0 C4.72471324 1.18117831 6.21155938 3.22477018 9.0625 6.875 C11.59662737 10.04548327 14.08954094 13.16249924 17 16 C17.51385254 15.27296875 17.51385254 15.27296875 18.03808594 14.53125 C19.59528815 12.34422731 21.17221131 10.17221141 22.75 8 C23.28882813 7.236875 23.82765625 6.47375 24.3828125 5.6875 C25.17558594 4.6046875 25.17558594 4.6046875 25.984375 3.5 C26.46616211 2.8296875 26.94794922 2.159375 27.44433594 1.46875 C29 0 29 0 33 0 C33 11.88 33 23.76 33 36 C31.68 36 30.36 36 29 36 C28.67 27.09 28.34 18.18 28 9 C24.37 13.29 20.74 17.58 17 22 C11 17 11 17 5 9 C4.67 17.91 4.34 26.82 4 36 C2.68 36 1.36 36 0 36 C0 24.12 0 12.24 0 0 Z " fill="#DECCBD" transform="translate(390,37)"/>
<path d="M0 0 C1.32 0 2.64 0 4 0 C5.47631836 1.63305664 5.47631836 1.63305664 6.83984375 3.91015625 C7.34580078 4.73580078 7.85175781 5.56144531 8.37304688 6.41210938 C8.88931641 7.28673828 9.40558594 8.16136719 9.9375 9.0625 C10.96549796 10.76289915 11.99541992 12.46213673 13.02734375 14.16015625 C13.70398071 15.29916382 13.70398071 15.29916382 14.39428711 16.46118164 C16.46162398 19.72988106 18.75200708 22.85280991 21 26 C21.33 17.42 21.66 8.84 22 0 C23.32 0 24.64 0 26 0 C26 11.88 26 23.76 26 36 C21 35 21 35 19.30249023 33.05395508 C18.80950439 32.21759521 18.31651855 31.38123535 17.80859375 30.51953125 C16.98004883 29.1437793 16.98004883 29.1437793 16.13476562 27.74023438 C15.57466797 26.77408203 15.01457031 25.80792969 14.4375 24.8125 C13.31189135 22.92276387 12.18560621 21.0334305 11.05859375 19.14453125 C10.56673584 18.30253174 10.07487793 17.46053223 9.56811523 16.59301758 C7.80190493 13.67243223 5.8932526 10.8398789 4 8 C3.67 17.57 3.34 27.14 3 37 C2.01 37 1.02 37 0 37 C0 24.79 0 12.58 0 0 Z " fill="#E4D2C2" transform="translate(163,37)"/>
<path d="M0 0 C1.32 0 2.64 0 4 0 C4.33 4.95 4.66 9.9 5 15 C5.80824219 14.00097656 6.61648437 13.00195312 7.44921875 11.97265625 C8.52800088 10.66873697 9.6074638 9.36538072 10.6875 8.0625 C11.21794922 7.40314453 11.74839844 6.74378906 12.29492188 6.06445312 C16.35216114 1.21070063 16.35216114 1.21070063 19.89453125 0.05859375 C20.58933594 0.03925781 21.28414062 0.01992188 22 0 C17.48432691 6.12352638 12.77926562 12.0805035 8 18 C8.73734375 18.22816406 9.4746875 18.45632812 10.234375 18.69140625 C13.55870777 20.26436031 14.97557909 22.06920252 17.25 24.9375 C23.35464253 31.87141475 28.43126811 32.88678886 37.33569336 33.54663086 C40.55611012 33.75035638 43.77521049 33.88525289 47 34 C47 34.99 47 35.98 47 37 C43.99900412 37.10890711 41.00203622 37.18773555 38 37.25 C36.74123047 37.30027344 36.74123047 37.30027344 35.45703125 37.3515625 C26.39303101 37.49208964 20.55456498 33.97193698 14 28 C13.154375 27.113125 12.30875 26.22625 11.4375 25.3125 C8.86881097 22.59024119 8.86881097 22.59024119 4 21 C4 26.28 4 31.56 4 37 C2.68 37 1.36 37 0 37 C0 24.79 0 12.58 0 0 Z " fill="#DDCBBC" transform="translate(110,37)"/>
<path d="M0 0 C-1.17990225 0.80294647 -2.36945689 1.59171174 -3.5625 2.375 C-4.22378906 2.81585938 -4.88507813 3.25671875 -5.56640625 3.7109375 C-13.94705685 8.15012642 -22.99435043 7.35070378 -32.24609375 7.390625 C-39.84998321 7.5389132 -46.27158331 8.65043929 -53.46630859 11.14697266 C-56 12 -56 12 -58 12 C-59.5625 9.1875 -59.5625 9.1875 -61 6 C-60.67 5.01 -60.34 4.02 -60 3 C-48.10364979 -0.02075654 -36.90288219 -0.34059894 -24.6875 -0.125 C-22.02702468 -0.0898512 -19.36659401 -0.05916854 -16.70600891 -0.03366089 C-15.06659689 -0.01675634 -13.42723394 0.00632565 -11.78800964 0.03634644 C-7.41869064 0.09457638 -4.12038606 -1.23611582 0 0 Z " fill="#6323DF" transform="translate(85,61)"/>
<path d="M0 0 C4.74827666 0.94965533 9.49140867 1.37827023 14.3203125 1.6640625 C9.46775522 4.09034114 6.14844341 4.82345549 0.6953125 4.7890625 C-0.03743896 4.78712891 -0.77019043 4.78519531 -1.52514648 4.78320312 C-4.97250666 4.75552892 -8.32861124 4.62643311 -11.7421875 4.1640625 C-24.12572181 2.59155021 -36.3838254 4.08658649 -48.6796875 5.6640625 C-48.6796875 2.6940625 -48.6796875 -0.2759375 -48.6796875 -3.3359375 C-36.3172886 -9.51713695 -12.53394439 -2.82656149 0 0 Z " fill="#6523E3" transform="translate(70.6796875,53.3359375)"/>
<path d="M0 0 C19.08879764 0.55095002 40.36830498 8.02078739 58 15 C58 15.33 58 15.66 58 16 C49.62516145 16.41624688 41.78406508 15.11499912 33.5625 13.625 C23.90127698 11.92331658 14.27327207 10.40902045 4.49633789 9.54541016 C1.48128368 9.27854161 -1.11332975 8.96222342 -4 8 C-2.25 2.25 -2.25 2.25 0 0 Z " fill="#6423E0" transform="translate(29,35)"/>
<path d="M0 0 C0.66 0.33 1.32 0.66 2 1 C0.82622983 2.2835253 -0.36485492 3.55122292 -1.5625 4.8125 C-2.22378906 5.52019531 -2.88507813 6.22789063 -3.56640625 6.95703125 C-9.18686525 11.6753299 -15.32025904 12.58716611 -22.375 13.5 C-28.90145262 14.35264946 -34.81262485 15.74433341 -41 18 C-41.99 18.33 -42.98 18.66 -44 19 C-45.82421875 18.00390625 -45.82421875 18.00390625 -47.6875 16.5625 C-48.31011719 16.08941406 -48.93273438 15.61632812 -49.57421875 15.12890625 C-50.04472656 14.75636719 -50.51523437 14.38382813 -51 14 C-48.89167183 11.66321522 -47.14528031 10.43676729 -44.1875 9.375 C-43.54167969 9.13523437 -42.89585938 8.89546875 -42.23046875 8.6484375 C-35.48403761 6.68712827 -28.57622837 6.69871337 -21.60742188 6.48242188 C-13.57459252 6.1581721 -6.02613963 5.83174802 0 0 Z " fill="#6423E1" transform="translate(83,65)"/>
<path d="M0 0 C3.58552881 1.63687185 4.79315055 2.68972583 7 6 C7 6.99 7 7.98 7 9 C5.68 9 4.36 9 3 9 C2.195625 8.175 1.39125 7.35 0.5625 6.5 C-1.73265598 3.80063402 -1.73265598 3.80063402 -4.625 3.5 C-6.9995488 3.87456753 -6.9995488 3.87456753 -8.875 5.0625 C-10.64782183 8.11569315 -9.69235306 10.66411708 -9 14 C-8.09636719 14.31453125 -7.19273437 14.6290625 -6.26171875 14.953125 C-5.08222656 15.38109375 -3.90273438 15.8090625 -2.6875 16.25 C-0.92986328 16.87648438 -0.92986328 16.87648438 0.86328125 17.515625 C4.06139861 19.02905538 5.34421583 19.92329467 7 23 C7.37025936 27.1469048 7.56203933 30.58394756 5 34 C1.46293888 36.91287386 -1.60832578 37.53696471 -6.06640625 37.3515625 C-9.25650081 36.77154531 -10.8773354 35.37995727 -13 33 C-13.8125 30.25 -13.8125 30.25 -14 28 C-12.68 28 -11.36 28 -10 28 C-9.67 29.32 -9.34 30.64 -9 32 C-7.54176788 32.0270043 -6.08339325 32.04639787 -4.625 32.0625 C-3.40683594 32.07990234 -3.40683594 32.07990234 -2.1640625 32.09765625 C0.04937142 32.14466334 0.04937142 32.14466334 2 31 C2.33380814 27.62563814 2.33380814 27.62563814 2 24 C-0.25411291 21.38522902 -2.08111031 20.97935374 -5.4375 20.125 C-9.66181785 18.79100489 -11.41933789 17.59728657 -14 14 C-14.64758997 11.19377678 -14.62975477 8.80836588 -14 6 C-10.25494165 0.13274192 -6.77768402 -0.74151246 0 0 Z " fill="#E2D0C1" transform="translate(444,37)"/>
<path d="M0 0 C3.86134614 0.04843983 6.16579789 0.80078068 9.25 3.25 C11.25 6.25 11.25 6.25 11.25 9.25 C9.93 9.25 8.61 9.25 7.25 9.25 C7.064375 8.610625 6.87875 7.97125 6.6875 7.3125 C5.31990621 4.88319686 5.31990621 4.88319686 1.875 4.3125 C-1.6487251 3.98906819 -1.6487251 3.98906819 -4.1875 5.375 C-5.95067567 7.17426218 -5.95067567 7.17426218 -6.1875 9.75 C-5.66240174 12.7505615 -5.08996686 13.36292995 -2.75 15.25 C0.01664398 16.34582435 2.81501719 17.20768679 5.65625 18.08984375 C8.59765945 19.4055043 9.6760306 20.46688854 11.25 23.25 C11.7912081 28.21107425 11.39534237 31.31832204 8.25 35.25 C5.24125764 37.59013294 1.97216645 37.67144589 -1.78125 37.56640625 C-5.0070006 37.04798205 -6.61426719 35.64460951 -8.75 33.25 C-9.5625 30.5 -9.5625 30.5 -9.75 28.25 C-8.43 28.25 -7.11 28.25 -5.75 28.25 C-5.316875 28.91 -4.88375 29.57 -4.4375 30.25 C-2.80366371 32.64521056 -2.80366371 32.64521056 0.75 32.6875 C4.11712015 32.49077435 4.11712015 32.49077435 6.25 31.125 C7.4866224 29.16924029 7.4866224 29.16924029 7.2109375 26.29296875 C6.55876129 22.98900132 6.55876129 22.98900132 3.4140625 21.74609375 C2.24617188 21.39675781 1.07828125 21.04742187 -0.125 20.6875 C-6.3132029 18.81457385 -6.3132029 18.81457385 -8.6328125 15.81640625 C-10.14930386 12.33271806 -10.28739505 10.01176538 -9.75 6.25 C-7.3125 3.375 -7.3125 3.375 -4.75 1.25 C-3.75 0.25 -3.75 0.25 0 0 Z " fill="#E3D1C1" transform="translate(327.75,36.75)"/>
<path d="M0 0 C2.87305972 1.40460697 4.74510999 2.74510999 7 5 C7 6.32 7 7.64 7 9 C5.125 8.6875 5.125 8.6875 3 8 C2.34 7.01 1.68 6.02 1 5 C-2.42823885 4.08167489 -2.42823885 4.08167489 -6 4 C-6.99 4.66 -7.98 5.32 -9 6 C-9.66676878 9.45749949 -9.66676878 9.45749949 -9 13 C-5.83675084 15.76784301 -1.82257784 16.86343759 2.1328125 18.15625 C4.34049731 19.15386489 5.52339869 20.07594375 7 22 C7.68863568 25.06442875 7.59406659 27.92165492 7 31 C4.81840855 33.75569447 3.12822506 35.43588747 0 37 C-3.71485406 37.28036634 -6.38871497 37.23919849 -9.875 35.875 C-12.65265279 33.42412989 -12.75885033 31.61724502 -13 28 C-11.125 28.3125 -11.125 28.3125 -9 29 C-8.34 29.99 -7.68 30.98 -7 32 C-5.09542071 32.43827201 -5.09542071 32.43827201 -3 32.3125 C-1.948125 32.30669922 -1.948125 32.30669922 -0.875 32.30078125 C1.2416577 32.14912946 1.2416577 32.14912946 3 30 C3.50010524 27.04230823 3.50010524 27.04230823 3 24 C0.70087248 21.31768456 -1.60803589 20.83576995 -4.9375 20.1875 C-8.07142214 19.47870639 -9.82428951 18.63646307 -12 16.25 C-14.24017189 12.60972068 -14.86853516 11.16896877 -14 7 C-10.17704263 0.97040914 -7.06495394 -0.47897993 0 0 Z " fill="#E6D4C4" transform="translate(279,37)"/>
<path d="M0 0 C1.9296875 1.1015625 1.9296875 1.1015625 4.8046875 3.1015625 C4.4746875 4.4215625 4.1446875 5.7415625 3.8046875 7.1015625 C2.4434375 6.3590625 2.4434375 6.3590625 1.0546875 5.6015625 C-5.13770854 2.94047174 -12.31468953 3.27852736 -18.6953125 5.1015625 C-19.5203125 5.4315625 -20.3453125 5.7615625 -21.1953125 6.1015625 C-22.5153125 6.1015625 -23.8353125 6.1015625 -25.1953125 6.1015625 C-25.1953125 15.6715625 -25.1953125 25.2415625 -25.1953125 35.1015625 C-26.5153125 35.1015625 -27.8353125 35.1015625 -29.1953125 35.1015625 C-29.1953125 25.5315625 -29.1953125 15.9615625 -29.1953125 6.1015625 C-30.8453125 5.7715625 -32.4953125 5.4415625 -34.1953125 5.1015625 C-34.8553125 4.4415625 -35.5153125 3.7815625 -36.1953125 3.1015625 C-36.1953125 2.1115625 -36.1953125 1.1215625 -36.1953125 0.1015625 C-35.2053125 0.4315625 -34.2153125 0.7615625 -33.1953125 1.1015625 C-22.64661998 1.67140393 -9.85234603 -4.03209891 0 0 Z " fill="#D8C7B8" transform="translate(379.1953125,37.8984375)"/>
<path d="M0 0 C1.32 0 2.64 0 4 0 C5.51075416 3.91260327 7.00671908 7.83069813 8.5 11.75 C8.92925781 12.86117187 9.35851562 13.97234375 9.80078125 15.1171875 C10.20683594 16.18710937 10.61289063 17.25703125 11.03125 18.359375 C11.40830078 19.34389648 11.78535156 20.32841797 12.17382812 21.34277344 C13 24 13 24 13 28 C12.01 28 11.02 28 10 28 C9.01 25.36 8.02 22.72 7 20 C3.37 19.67 -0.26 19.34 -4 19 C-4.33 20.65 -4.66 22.3 -5 24 C-6.0625 26.3125 -6.0625 26.3125 -7 28 C-7.99 28 -8.98 28 -10 28 C-9.35760353 22.02772027 -7.1618739 16.73958523 -5 11.1875 C-4.63132813 10.22134766 -4.26265625 9.25519531 -3.8828125 8.25976562 C-1.14158929 1.14158929 -1.14158929 1.14158929 0 0 Z " fill="#E2D0C0" transform="translate(204,37)"/>
<path d="M0 0 C0.99 0 1.98 0 3 0 C3.33 5.28 3.66 10.56 4 16 C5.4025 14.288125 6.805 12.57625 8.25 10.8125 C9.03890625 9.84957031 9.8278125 8.88664062 10.640625 7.89453125 C12.16757736 6.02123373 13.64138891 4.10278994 15.046875 2.13671875 C15.69140625 1.43160156 16.3359375 0.72648437 17 0 C18.32 0 19.64 0 21 0 C19.007945 4.67699869 15.53100137 7.90205049 12.09375 11.5625 C10.27427775 13.68069157 9.08541507 15.45163418 8 18 C9.010625 18.598125 10.02125 19.19625 11.0625 19.8125 C16.76389334 23.84179428 20.81049328 30.43147985 23 37 C21.234375 36.828125 21.234375 36.828125 19 36 C17.140625 33.671875 17.140625 33.671875 15.25 30.75 C11.67046879 25.57582801 8.55501377 22.87670356 3 20 C3 25.28 3 30.56 3 36 C2.01 36 1.02 36 0 36 C0 24.12 0 12.24 0 0 Z " fill="#EAD7C7" transform="translate(223,37)"/>
<path d="M0 0 C6.27 0 12.54 0 19 0 C19 1.32 19 2.64 19 4 C13.72 4 8.44 4 3 4 C3 6.64 3 9.28 3 12 C7.29 12 11.58 12 16 12 C15.67 13.32 15.34 14.64 15 16 C11.04 16 7.08 16 3 16 C3 18.64 3 21.28 3 24 C8.28 24 13.56 24 19 24 C19 25.32 19 26.64 19 28 C12.73 28 6.46 28 0 28 C0 18.76 0 9.52 0 0 Z " fill="#D4C3B5" transform="translate(363,46)"/>
<path d="M0 0 C1.32 0 2.64 0 4 0 C5.51110807 3.74561895 7.00693339 7.4971569 8.5 11.25 C8.92925781 12.31347656 9.35851562 13.37695312 9.80078125 14.47265625 C10.40986328 16.00986328 10.40986328 16.00986328 11.03125 17.578125 C11.40830078 18.52075195 11.78535156 19.46337891 12.17382812 20.43457031 C13 23 13 23 13 27 C12.01 27 11.02 27 10 27 C8.515 23.535 8.515 23.535 7 20 C3.7 20 0.4 20 -3 20 C-3.99 22.31 -4.98 24.62 -6 27 C-6.99 27 -7.98 27 -9 27 C-7.71011592 20.49194848 -5.8622531 14.57980187 -3.375 8.4375 C-3.05015625 7.61958984 -2.7253125 6.80167969 -2.390625 5.95898438 C-1.59978204 3.97024694 -0.80075781 1.98476601 0 0 Z " fill="#E6D4C4" transform="translate(143,37)"/>
<path d="M0 0 C2.69695761 1.3125935 5.32384582 2.71233706 7.94921875 4.16259766 C8.83480469 4.63246094 9.72039062 5.10232422 10.6328125 5.58642578 C26.07026429 13.89454044 26.07026429 13.89454044 31.44921875 19.97509766 C25.65899971 18.13871751 20.02096867 16.04195383 14.39086914 13.76391602 C3.56609303 9.38829423 -7.22275788 5.78942556 -18.55078125 2.97509766 C-13.07641624 -3.04670385 -7.27743766 -2.92406999 0 0 Z " fill="#6323DE" transform="translate(54.55078125,26.02490234375)"/>
<path d="M0 0 C1.32 0 2.64 0 4 0 C6.64 4.62 9.28 9.24 12 14 C14.46660018 9.77476556 14.46660018 9.77476556 16.90527344 5.53344727 C19.502329 1.19992645 19.502329 1.19992645 22.265625 0.08984375 C22.83796875 0.06019531 23.4103125 0.03054687 24 0 C22.72783703 4.37266065 21.03767035 7.53702187 18.4375 11.25 C13.66819656 19.08669777 13.93066932 27.08605529 14 36 C13.01 36 12.02 36 11 36 C11.04382813 34.88625 11.08765625 33.7725 11.1328125 32.625 C11.23176861 21.26133172 8.75169493 14.27731709 2.15234375 5.0625 C0 2 0 2 0 0 Z " fill="#E8D5C5" transform="translate(290,37)"/>
<path d="M0 0 C0 0.99 0 1.98 0 3 C-8.890892 11.10640153 -16.62306705 14.34573519 -28.4609375 14.30078125 C-31 14 -31 14 -33 12 C-28.97974036 10.5669106 -24.99292411 9.5078834 -20.83227539 8.60498047 C-9.48189545 6.30906704 -9.48189545 6.30906704 0 0 Z " fill="#5E22D1" transform="translate(80,74)"/>
<path d="M0 0 C2 1 2 1 2.8515625 3.28515625 C3.10679687 4.20167969 3.36203125 5.11820313 3.625 6.0625 C3.88539063 6.98160156 4.14578125 7.90070312 4.4140625 8.84765625 C4.60742188 9.55792969 4.80078125 10.26820312 5 11 C2.36 11 -0.28 11 -3 11 C-2.44894091 7.0507432 -1.61064629 3.65079826 0 0 Z " fill="#3C3A38" transform="translate(205,43)"/>
<path d="M0 0 C0.66 0 1.32 0 2 0 C5 6.625 5 6.625 5 10 C2.36 10 -0.28 10 -3 10 C-2.39009109 6.44219804 -1.4216319 3.3171411 0 0 Z " fill="#3A3735" transform="translate(144,44)"/>
<path d="M0 0 C6.80959748 1.00882926 12.03855935 4.79935927 16.5625 9.875 C17.036875 10.57625 17.51125 11.2775 18 12 C17.67 12.66 17.34 13.32 17 14 C16.27554688 13.39671875 15.55109375 12.7934375 14.8046875 12.171875 C8.74462863 7.0881574 8.74462863 7.0881574 2.3125 2.5 C1.549375 2.005 0.78625 1.51 0 1 C0 0.67 0 0.34 0 0 Z " fill="#5C22CA" transform="translate(64,24)"/>
<path d="M0 0 C1.32 0.33 2.64 0.66 4 1 C2.92492371 2.29854721 1.83956264 3.58858361 0.75 4.875 C0.14671875 5.59429687 -0.4565625 6.31359375 -1.078125 7.0546875 C-2.99274422 8.99265574 -4.53509447 9.90897624 -7 11 C-8.35113205 11.97581759 -9.68946944 12.97029741 -11 14 C-9.42219077 10.28954753 -7.09296752 7.70093616 -4.375 4.75 C-3.55773437 3.85796875 -2.74046875 2.9659375 -1.8984375 2.046875 C-1.27195312 1.37140625 -0.64546875 0.6959375 0 0 Z " fill="#DDCBBC" transform="translate(128,37)"/>
<path d="M0 0 C1.32 0 2.64 0 4 0 C2.49103331 4.22510673 -0.27310654 5.71822849 -4 8 C-4.99 8.66 -5.98 9.32 -7 10 C-5.31559374 6.01867611 -2.96674659 3.10802023 0 0 Z " fill="#D7C6B7" transform="translate(240,37)"/>
</svg>
