<svg width="162" height="40" viewBox="0 0 162 40" fill="none" xmlns="http://www.w3.org/2000/svg" class="text-primary"><path d="M84.8942 11.9856C84.7082 10.7919 83.5988 9.5405 81.9143 9.5405C80.4227 9.5405 79.222 10.6088 78.8499 11.9856H84.8942ZM87.9147 13.3455C87.9147 13.6881 87.8876 14.1662 87.8876 14.1662H78.7654C79.0089 15.9195 80.4227 17.1506 82.1985 17.1506C83.4973 17.1506 84.6 16.608 85.4185 15.6347L87.3837 17.3744C86.1931 18.792 84.4241 19.7551 82.2526 19.7551C78.7214 19.7551 75.8599 17.0624 75.8599 13.2879C75.8599 9.74737 78.5489 6.93937 82.0801 6.93937C85.4726 6.93937 87.9147 9.79146 87.9147 13.3455ZM71.385 10.7139C70.6443 10.056 69.6465 9.6185 68.4491 9.6185C66.5009 9.6185 64.9078 11.2294 64.9078 13.2981C64.9078 15.6686 66.5888 17.0794 68.3916 17.0794C69.5349 17.0794 70.6172 16.5639 71.385 15.8009V10.7139ZM74.2972 16.3367L74.9873 19.4397H72.3287L71.7063 18.2833C70.7728 19.104 69.4943 19.7585 67.935 19.7585C64.5154 19.7585 61.955 16.9437 61.955 13.3523C61.955 9.64224 64.7894 6.94276 68.1582 6.94276C69.3894 6.94276 70.4853 7.3972 71.3816 8.06189V1.28606L74.2939 0.594238V16.3367H74.2972ZM54.7302 6.93937V9.68633C56.462 9.9712 57.727 11.4362 57.727 13.3591C57.727 15.1633 56.5262 16.7165 54.7302 17.0082V19.7551C58.1667 19.4635 60.6933 16.7369 60.6933 13.3591C60.6933 9.98137 58.1701 7.23442 54.7302 6.93937ZM47.5528 13.3591C47.5528 16.7369 50.0794 19.4635 53.5159 19.7551V17.0082C51.7233 16.7165 50.5191 15.1599 50.5191 13.3591C50.5191 11.4362 51.7842 9.96781 53.5159 9.68633V6.93937C50.0794 7.23442 47.5528 9.98137 47.5528 13.3591ZM103 12.0874C101.339 11.7042 100.325 11.3074 100.325 10.5342C100.325 9.82198 101.092 9.3845 102.168 9.3845C103.122 9.3845 104.268 9.98477 104.772 10.8462L106.633 9.18781C105.919 8.08563 104.377 6.93937 102.188 6.93937C99.9086 6.93937 97.6086 8.39085 97.6086 10.6461C97.6086 12.769 99.2626 13.8 102.215 14.5088C103.321 14.7767 104.187 15.1972 104.187 15.967C104.187 16.6656 103.558 17.2388 102.368 17.2388C101.008 17.2388 99.8714 16.7165 98.9818 15.5092L97.1181 17.1845C98.1667 18.7784 100.227 19.7551 102.445 19.7551C105.006 19.7551 106.893 18.0391 106.893 15.8992C106.89 13.6982 105.067 12.5655 103 12.0874ZM7.91137 8.9165C7.63402 8.8419 6.84931 8.63842 6.3521 8.52311C4.5865 8.10937 3.49399 7.58033 3.49399 6.36624C3.49399 5.24711 4.62032 4.20259 6.31489 4.20259C7.82343 4.20259 8.99373 4.95546 9.97124 6.30181L12.1799 4.26702C11.0874 2.84267 9.39285 1.28267 6.36563 1.28267C3.07458 1.28267 0.301032 3.55485 0.301032 6.59007C0.301032 8.98433 1.8231 10.6596 5.01944 11.4396C5.48959 11.5549 6.1796 11.7177 6.6599 11.8432C8.6352 12.3553 9.42668 13.2574 9.42668 14.3765C9.42668 15.7975 8.05682 16.7708 6.55166 16.7708C5.21224 16.7708 3.61576 16.296 2.57737 14.1866L0 15.7568C0.848976 17.778 3.2234 19.7551 6.44004 19.7551C10.137 19.7551 12.6974 17.2557 12.6974 14.3799C12.6941 11.6092 11.0164 9.73381 7.91137 8.9165ZM20.3923 16.9471C18.5388 16.9471 16.9761 15.4516 16.9761 13.315C16.9761 11.209 18.4779 9.7372 20.3348 9.7372C21.3969 9.7372 22.4759 10.3205 23.22 11.3108L25.3881 9.45572C24.2516 7.97033 22.5943 6.94276 20.389 6.94276C16.6988 6.94276 13.9996 9.80842 13.9996 13.3489C13.9996 17.1099 16.8611 19.7585 20.3923 19.7585C22.4657 19.7585 24.3328 18.7988 25.52 17.3778L23.4128 15.499C22.5401 16.4859 21.6912 16.9471 20.3923 16.9471ZM33.2386 6.93937C31.8687 6.93937 30.6003 7.49555 29.5518 8.42476V0.594238L26.6396 1.28606V19.4397H29.5518V11.2972C30.2689 10.429 31.3106 9.71007 32.4505 9.71007C34.2533 9.71007 35.2883 10.8122 35.2883 13.5015V19.4363H38.1938V13.393C38.1972 9.70668 36.5973 6.93937 33.2386 6.93937ZM92.0987 8.5672L91.4188 7.2412H89.4097V19.4363H92.3219V11.1276C93.0457 10.2255 94.003 9.68972 95.1293 9.68972C95.6028 9.68972 96.1102 9.77111 96.6142 9.95085L96.9456 7.15981C96.4247 7.00042 95.9208 6.93598 95.4472 6.94276C93.9421 6.95972 92.853 7.66172 92.0987 8.5672ZM47.6205 7.15641L47.289 9.94746C46.7884 9.76772 46.2777 9.68633 45.8041 9.68633C44.6778 9.68633 43.7206 10.2222 42.9967 11.1242V19.4363H40.0845V7.24459H42.0937L42.7735 8.57059C43.5278 7.66511 44.6169 6.95972 46.1187 6.94276C46.5956 6.93598 47.0996 6.99702 47.6205 7.15641Z" fill="currentColor"></path><path d="M84.8942 11.9856C84.7082 10.7919 83.5988 9.5405 81.9143 9.5405C80.4227 9.5405 79.222 10.6088 78.8499 11.9856H84.8942ZM87.9147 13.3455C87.9147 13.6881 87.8876 14.1662 87.8876 14.1662H78.7654C79.0089 15.9195 80.4227 17.1506 82.1985 17.1506C83.4973 17.1506 84.6 16.608 85.4185 15.6347L87.3837 17.3744C86.1931 18.792 84.4241 19.7551 82.2526 19.7551C78.7214 19.7551 75.8599 17.0624 75.8599 13.2879C75.8599 9.74737 78.5489 6.93937 82.0801 6.93937C85.4726 6.93937 87.9147 9.79146 87.9147 13.3455ZM71.385 10.7139C70.6443 10.056 69.6465 9.6185 68.4491 9.6185C66.5009 9.6185 64.9078 11.2294 64.9078 13.2981C64.9078 15.6686 66.5888 17.0794 68.3916 17.0794C69.5349 17.0794 70.6172 16.5639 71.385 15.8009V10.7139ZM74.2972 16.3367L74.9873 19.4397H72.3287L71.7063 18.2833C70.7728 19.104 69.4943 19.7585 67.935 19.7585C64.5154 19.7585 61.955 16.9437 61.955 13.3523C61.955 9.64224 64.7894 6.94276 68.1582 6.94276C69.3894 6.94276 70.4853 7.3972 71.3816 8.06189V1.28606L74.2939 0.594238V16.3367H74.2972ZM54.7302 6.93937V9.68633C56.462 9.9712 57.727 11.4362 57.727 13.3591C57.727 15.1633 56.5262 16.7165 54.7302 17.0082V19.7551C58.1667 19.4635 60.6933 16.7369 60.6933 13.3591C60.6933 9.98137 58.1701 7.23442 54.7302 6.93937ZM47.5528 13.3591C47.5528 16.7369 50.0794 19.4635 53.5159 19.7551V17.0082C51.7233 16.7165 50.5191 15.1599 50.5191 13.3591C50.5191 11.4362 51.7842 9.96781 53.5159 9.68633V6.93937C50.0794 7.23442 47.5528 9.98137 47.5528 13.3591ZM103 12.0874C101.339 11.7042 100.325 11.3074 100.325 10.5342C100.325 9.82198 101.092 9.3845 102.168 9.3845C103.122 9.3845 104.268 9.98477 104.772 10.8462L106.633 9.18781C105.919 8.08563 104.377 6.93937 102.188 6.93937C99.9086 6.93937 97.6086 8.39085 97.6086 10.6461C97.6086 12.769 99.2626 13.8 102.215 14.5088C103.321 14.7767 104.187 15.1972 104.187 15.967C104.187 16.6656 103.558 17.2388 102.368 17.2388C101.008 17.2388 99.8714 16.7165 98.9818 15.5092L97.1181 17.1845C98.1667 18.7784 100.227 19.7551 102.445 19.7551C105.006 19.7551 106.893 18.0391 106.893 15.8992C106.89 13.6982 105.067 12.5655 103 12.0874ZM7.91137 8.9165C7.63402 8.8419 6.84931 8.63842 6.3521 8.52311C4.5865 8.10937 3.49399 7.58033 3.49399 6.36624C3.49399 5.24711 4.62032 4.20259 6.31489 4.20259C7.82343 4.20259 8.99373 4.95546 9.97124 6.30181L12.1799 4.26702C11.0874 2.84267 9.39285 1.28267 6.36563 1.28267C3.07458 1.28267 0.301032 3.55485 0.301032 6.59007C0.301032 8.98433 1.8231 10.6596 5.01944 11.4396C5.48959 11.5549 6.1796 11.7177 6.6599 11.8432C8.6352 12.3553 9.42668 13.2574 9.42668 14.3765C9.42668 15.7975 8.05682 16.7708 6.55166 16.7708C5.21224 16.7708 3.61576 16.296 2.57737 14.1866L0 15.7568C0.848976 17.778 3.2234 19.7551 6.44004 19.7551C10.137 19.7551 12.6974 17.2557 12.6974 14.3799C12.6941 11.6092 11.0164 9.73381 7.91137 8.9165ZM20.3923 16.9471C18.5388 16.9471 16.9761 15.4516 16.9761 13.315C16.9761 11.209 18.4779 9.7372 20.3348 9.7372C21.3969 9.7372 22.4759 10.3205 23.22 11.3108L25.3881 9.45572C24.2516 7.97033 22.5943 6.94276 20.389 6.94276C16.6988 6.94276 13.9996 9.80842 13.9996 13.3489C13.9996 17.1099 16.8611 19.7585 20.3923 19.7585C22.4657 19.7585 24.3328 18.7988 25.52 17.3778L23.4128 15.499C22.5401 16.4859 21.6912 16.9471 20.3923 16.9471ZM33.2386 6.93937C31.8687 6.93937 30.6003 7.49555 29.5518 8.42476V0.594238L26.6396 1.28606V19.4397H29.5518V11.2972C30.2689 10.429 31.3106 9.71007 32.4505 9.71007C34.2533 9.71007 35.2883 10.8122 35.2883 13.5015V19.4363H38.1938V13.393C38.1972 9.70668 36.5973 6.93937 33.2386 6.93937ZM92.0987 8.5672L91.4188 7.2412H89.4097V19.4363H92.3219V11.1276C93.0457 10.2255 94.003 9.68972 95.1293 9.68972C95.6028 9.68972 96.1102 9.77111 96.6142 9.95085L96.9456 7.15981C96.4247 7.00042 95.9208 6.93598 95.4472 6.94276C93.9421 6.95972 92.853 7.66172 92.0987 8.5672ZM47.6205 7.15641L47.289 9.94746C46.7884 9.76772 46.2777 9.68633 45.8041 9.68633C44.6778 9.68633 43.7206 10.2222 42.9967 11.1242V19.4363H40.0845V7.24459H42.0937L42.7735 8.57059C43.5278 7.66511 44.6169 6.95972 46.1187 6.94276C46.5956 6.93598 47.0996 6.99702 47.6205 7.15641Z" fill="currentColor"></path><path d="M3.46005 30.4335C1.95151 30.4335 0.960478 31.7459 0.960478 33.4416C0.960478 35.1678 1.95151 36.4666 3.46005 36.4666C4.9855 36.4666 5.99007 35.1542 5.99007 33.4416C5.99007 31.7324 4.9855 30.4335 3.46005 30.4335ZM0.0641479 39.997V29.8095H0.96386V31.261C1.31563 30.5115 2.16799 29.6128 3.61564 29.6128C5.67213 29.6128 6.90669 31.2949 6.90669 33.4484C6.90669 35.6188 5.62815 37.2975 3.5852 37.2975C2.1849 37.2975 1.34607 36.4565 0.980771 35.7239V40.0004H0.0641479V39.997Z" fill="currentColor"></path><path d="M14.865 32.8616C14.8346 31.5017 13.9653 30.4335 12.4432 30.4335C11.0869 30.4335 10.1128 31.5187 10.0214 32.8616H14.865ZM15.7782 35.0321C15.3656 36.2699 14.2697 37.2941 12.592 37.2941C10.6709 37.2941 9.05746 35.8731 9.05746 33.428C9.05746 31.1355 10.6134 29.6094 12.4263 29.6094C14.5741 29.6094 15.8087 31.1355 15.8222 33.2889C15.8222 33.411 15.8222 33.5026 15.8087 33.6247H9.98762V33.6857C10.0045 35.3678 11.1613 36.4666 12.592 36.4666C13.901 36.4666 14.6654 35.7036 14.9699 34.7404L15.7782 35.0321Z" fill="currentColor"></path><path d="M21.8154 30.7521C21.6463 30.7046 21.4197 30.6775 21.1761 30.6775C19.9416 30.6775 19.0283 31.4711 19.0283 33.1362V37.0938H18.1151V29.8059H19.0148V31.1658C19.4579 30.1586 20.2933 29.7144 21.2539 29.7144C21.4975 29.7144 21.697 29.7449 21.8188 29.789V30.7521H21.8154Z" fill="currentColor"></path><path d="M24.3593 34.8926C24.4946 35.7778 25.1677 36.4967 26.3549 36.4967C27.2546 36.4967 27.9683 35.9609 27.9683 35.1979C27.9683 34.5264 27.5117 34.1601 26.7337 33.977L25.56 33.7023C24.4946 33.4581 23.7775 32.8172 23.7775 31.7625C23.7775 30.5857 24.9039 29.6226 26.2298 29.6226C27.9209 29.6226 28.638 30.6298 28.8342 31.5013L28.0258 31.8066C27.8871 31.1046 27.3865 30.4161 26.2264 30.4161C25.4045 30.4161 24.6739 30.935 24.6739 31.698C24.6739 32.3254 25.0696 32.6917 25.8171 32.8579L26.9739 33.119C28.178 33.3937 28.8646 34.0821 28.8646 35.1334C28.8646 36.2186 27.9514 37.2869 26.3346 37.2869C24.5521 37.2869 23.6524 36.1407 23.5171 35.1775L24.3593 34.8926Z" fill="currentColor"></path><path d="M34.6082 36.4662C36.0423 36.4662 37.2904 35.3505 37.2904 33.4581C37.2904 31.5488 36.0423 30.45 34.6082 30.45C33.1741 30.45 31.926 31.5488 31.926 33.4581C31.9294 35.3505 33.1775 36.4662 34.6082 36.4662ZM30.9992 33.4581C30.9992 31.1656 32.5686 29.6226 34.6116 29.6226C36.6376 29.6226 38.2206 31.1656 38.2206 33.4581C38.2206 35.7337 36.6376 37.2937 34.6116 37.2937C32.5822 37.2903 30.9992 35.7337 30.9992 33.4581Z" fill="currentColor"></path><path d="M41.2402 37.0941H40.327V29.8096H41.2098V30.9694C41.6055 30.1894 42.4579 29.6265 43.5707 29.6265C45.2754 29.6265 46.1447 30.8473 46.1447 32.3463V37.0975H45.2314V32.4989C45.2314 31.3526 44.6666 30.4506 43.2663 30.4506C42.0182 30.4506 41.2402 31.5052 41.2402 32.7431V37.0941Z" fill="currentColor"></path><path d="M53.1038 34.1132V33.2891C53.0599 33.3332 52.8603 33.4247 52.5694 33.4722L50.5434 33.7774C49.691 33.8995 49.1566 34.3743 49.1566 35.1679C49.1566 35.8393 49.7045 36.4973 50.7125 36.4973C52.0993 36.4973 53.1038 35.5816 53.1038 34.1132ZM48.2298 35.2153C48.2298 33.9775 49.0822 33.2619 50.4081 33.0619L52.3428 32.7702C52.9685 32.6786 53.1038 32.4039 53.1038 32.0682C53.1038 31.1051 52.4646 30.42 51.2773 30.42C50.1206 30.42 49.3562 31.061 49.2344 32.1157L48.382 31.9326C48.5512 30.5421 49.7079 29.6265 51.2604 29.6265C53.1478 29.6265 54.0171 30.7727 54.0171 32.1632V35.8461C54.0171 36.426 54.061 36.7923 54.1219 37.0975H53.2222C53.1918 36.9313 53.1309 36.4396 53.1309 35.8461C52.796 36.5346 51.9268 37.2806 50.6009 37.2806C49.0822 37.2773 48.2298 36.27 48.2298 35.2153Z" fill="currentColor"></path><path d="M57.5504 26.0664H56.6372V37.0949H57.5504V26.0664Z" fill="currentColor"></path><path d="M66.9468 29.6533L68.6988 34.8013L70.1736 29.6533H71.973L69.5952 37.0938H67.8296L65.9862 31.7458L64.1868 37.0938H62.3738L59.9689 29.6533H61.8563L63.3648 34.8013L65.1169 29.6533H66.9468Z" fill="currentColor"></path><path d="M90.2863 37.0937V26.4111L92.0553 26.0347V37.0937H90.2863Z" fill="currentColor"></path><path d="M96.8541 29.6535H98.3931V31.227H96.8541V34.6794C96.8541 35.3373 97.145 35.612 97.7978 35.612C98.0413 35.612 98.3322 35.5645 98.4066 35.551V37.016C98.3018 37.0601 97.9669 37.1822 97.3243 37.1822C95.9544 37.1822 95.0987 36.3581 95.0987 34.9676V31.2236H93.7254V29.6501H94.1076C94.8991 29.6501 95.2509 29.1448 95.2509 28.4903V27.3745H96.8507V29.6535H96.8541Z" fill="currentColor"></path><path d="M104.312 29.7382C103.507 29.7382 102.759 30.0638 102.144 30.6132V26.0044L100.429 26.4114V37.094H102.144V32.3021C102.566 31.79 103.179 31.3694 103.848 31.3694C104.907 31.3694 105.519 32.0172 105.519 33.6009V37.094H107.231V33.5365C107.227 31.366 106.287 29.7382 104.312 29.7382Z" fill="currentColor"></path><path d="M74.8989 32.5361C75.1289 31.6883 75.8663 31.0304 76.7863 31.0304C77.8247 31.0304 78.5079 31.8036 78.6229 32.5361H74.8989ZM80.4866 33.3738C80.4866 31.183 78.9815 29.4263 76.8912 29.4263C74.7163 29.4263 73.0589 31.1558 73.0589 33.3398C73.0589 35.6663 74.8211 37.3246 76.9994 37.3246C78.3354 37.3246 79.4279 36.7311 80.1585 35.8562L78.9476 34.7845C78.4437 35.3848 77.7638 35.7171 76.9622 35.7171C75.8697 35.7171 74.997 34.9575 74.8482 33.8791H80.4697C80.4697 33.8791 80.4866 33.584 80.4866 33.3738Z" fill="currentColor"></path><path d="M86.6933 34.0084V33.6726L84.7586 33.9609C84.2106 34.0525 83.7675 34.3577 83.7675 34.9681C83.7675 35.4734 84.1464 35.9313 84.8499 35.9313C85.8409 35.9313 86.6933 35.4599 86.6933 34.0084ZM84.2411 32.8316L86.1453 32.5399C86.5715 32.4789 86.6933 32.2653 86.6933 32.0041C86.6933 31.3767 86.2671 30.8748 85.293 30.8748C84.3628 30.8748 83.8453 31.4717 83.7709 32.2178L82.1541 31.8515C82.2894 30.5662 83.4496 29.4233 85.2761 29.4233C87.5625 29.4233 88.4284 30.7222 88.4284 32.2042V35.3106C88.4284 35.3106 88.8174 37.0165 88.8309 37.0945H87.2683C87.2548 37.047 86.9909 36.6638 86.8421 36.2636C86.4903 36.83 85.7124 37.3217 84.5116 37.3217C82.9591 37.3217 81.9985 36.2534 81.9985 35.0766C82.0019 33.7473 82.976 33.0147 84.2411 32.8316Z" fill="currentColor"></path><path d="M143.819 35.2386C143.836 35.398 143.886 35.5777 143.971 35.7778C144.059 35.9779 144.191 36.1644 144.374 36.3407C144.556 36.5137 144.79 36.6629 145.074 36.785C145.361 36.9071 145.716 36.9681 146.139 36.9681C146.501 36.9681 146.819 36.9139 147.09 36.8087C147.36 36.7036 147.587 36.5646 147.769 36.3882C147.952 36.2153 148.084 36.0186 148.172 35.7981C148.26 35.5777 148.3 35.3539 148.3 35.1266C148.3 34.7197 148.162 34.3602 147.888 34.0482C147.61 33.7396 147.198 33.5259 146.646 33.414L145.855 33.2445C145.703 33.2139 145.581 33.1563 145.486 33.0749C145.392 32.9901 145.344 32.8816 145.344 32.7459C145.344 32.5866 145.415 32.4543 145.554 32.3492C145.693 32.244 145.862 32.1898 146.058 32.1898C146.217 32.1898 146.349 32.2135 146.46 32.2576C146.569 32.3017 146.663 32.3627 146.738 32.4407C146.812 32.5153 146.87 32.5967 146.904 32.6849C146.937 32.7731 146.961 32.8579 146.978 32.9393L148.236 32.6544C148.219 32.5018 148.172 32.3356 148.087 32.1491C148.006 31.9626 147.878 31.7896 147.709 31.62C147.539 31.4539 147.32 31.3148 147.046 31.2063C146.775 31.0978 146.44 31.0401 146.048 31.0401C145.747 31.0401 145.469 31.091 145.216 31.1893C144.962 31.2877 144.746 31.4166 144.56 31.5793C144.374 31.7421 144.228 31.9354 144.123 32.1593C144.018 32.3831 143.964 32.6205 143.964 32.868C143.964 33.2614 144.089 33.6073 144.34 33.9058C144.59 34.2042 144.986 34.4145 145.527 34.5366L146.264 34.7061C146.484 34.7502 146.636 34.8214 146.728 34.9164C146.819 35.0113 146.863 35.1233 146.863 35.2521C146.863 35.4047 146.802 35.5336 146.68 35.6421C146.559 35.7506 146.376 35.8083 146.126 35.8083C145.794 35.8083 145.544 35.7201 145.378 35.5472C145.212 35.3742 145.121 35.1775 145.107 34.9571L143.819 35.2386ZM141.986 34.818C141.894 35.069 141.749 35.2725 141.549 35.4319C141.35 35.5913 141.072 35.6693 140.717 35.6693C140.528 35.6693 140.352 35.6387 140.186 35.5743C140.02 35.5099 139.875 35.4217 139.75 35.3064C139.625 35.1945 139.523 35.0588 139.445 34.9028C139.368 34.7468 139.324 34.5806 139.317 34.3975H143.301C143.301 34.3806 143.305 34.3263 143.311 34.2313C143.318 34.1364 143.322 34.038 143.322 33.9295C143.322 33.0274 143.081 32.322 142.598 31.8066C142.114 31.2911 141.438 31.0333 140.572 31.0333C140.217 31.0333 139.872 31.1046 139.54 31.2436C139.209 31.3826 138.914 31.5793 138.664 31.8337C138.41 32.088 138.207 32.3966 138.059 32.7595C137.906 33.1224 137.832 33.526 137.832 33.9736C137.832 34.4416 137.91 34.8621 138.065 35.2352C138.221 35.6048 138.431 35.9202 138.695 36.178C138.958 36.4357 139.263 36.629 139.611 36.7613C139.96 36.8935 140.325 36.9613 140.71 36.9613C141.049 36.9613 141.363 36.9139 141.644 36.8189C141.928 36.724 142.175 36.5985 142.385 36.4391C142.594 36.2797 142.774 36.0932 142.922 35.8761C143.068 35.6591 143.176 35.4319 143.244 35.1877L141.986 34.818ZM139.347 33.3666C139.354 33.2377 139.388 33.1088 139.442 32.9799C139.5 32.8511 139.581 32.7358 139.686 32.6273C139.79 32.5221 139.919 32.434 140.071 32.3661C140.223 32.2983 140.396 32.2644 140.592 32.2644C140.802 32.2644 140.988 32.2983 141.14 32.3593C141.296 32.4238 141.424 32.5052 141.526 32.6103C141.627 32.712 141.701 32.8307 141.752 32.963C141.803 33.0953 141.83 33.2309 141.837 33.3666H139.347ZM137.751 31.2097H136.164L134.839 34.9537L133.459 31.2097H131.805L134.081 36.7952H135.586L137.751 31.2097ZM129.826 30.0295C130.005 30.2093 130.225 30.3008 130.482 30.3008C130.746 30.3008 130.966 30.2093 131.145 30.0295C131.321 29.8464 131.412 29.6327 131.412 29.3818C131.412 29.1173 131.324 28.8934 131.145 28.7137C130.969 28.5306 130.746 28.4424 130.482 28.4424C130.225 28.4424 130.005 28.5339 129.826 28.7137C129.643 28.8968 129.555 29.1173 129.555 29.3818C129.555 29.6293 129.643 29.8464 129.826 30.0295ZM131.24 31.2097H129.735V36.7952H131.24V31.2097ZM129.126 36.7918V35.2928H125.547V28.7442H123.985V36.7918H129.126Z" fill="currentColor"></path><path d="M160.334 21.7038C160.242 21.9548 160.097 22.1583 159.897 22.3177C159.698 22.4771 159.42 22.5551 159.065 22.5551C158.876 22.5551 158.7 22.5245 158.534 22.4601C158.368 22.3957 158.223 22.3075 158.098 22.1922C157.973 22.0803 157.871 21.9446 157.793 21.7886C157.716 21.6326 157.672 21.4665 157.662 21.2833H161.646C161.646 21.2698 161.649 21.2121 161.656 21.1171C161.663 21.0222 161.666 20.9238 161.666 20.8153C161.666 19.9132 161.426 19.2078 160.942 18.6924C160.459 18.1769 159.786 17.9191 158.916 17.9191C158.561 17.9191 158.22 17.9904 157.885 18.1294C157.553 18.2685 157.259 18.4651 157.009 18.7195C156.755 18.9738 156.555 19.2825 156.403 19.6453C156.251 20.0082 156.177 20.4118 156.177 20.8594C156.177 21.3274 156.254 21.7479 156.41 22.121C156.566 22.4906 156.775 22.806 157.039 23.0638C157.303 23.3215 157.607 23.5148 157.956 23.6471C158.304 23.7793 158.669 23.8472 159.055 23.8472C159.393 23.8472 159.704 23.7997 159.989 23.7047C160.273 23.6098 160.52 23.4843 160.729 23.3249C160.939 23.1655 161.118 22.979 161.267 22.7619C161.413 22.5449 161.521 22.3177 161.588 22.0769L160.334 21.7038ZM157.695 20.2524C157.702 20.1235 157.736 19.9946 157.793 19.8658C157.851 19.7369 157.932 19.6182 158.037 19.5131C158.142 19.4079 158.27 19.3198 158.423 19.2519C158.575 19.1841 158.747 19.1502 158.943 19.1502C159.153 19.1502 159.339 19.1841 159.491 19.2451C159.647 19.3096 159.776 19.3944 159.877 19.4961C159.978 19.5978 160.053 19.7165 160.104 19.8488C160.151 19.9811 160.181 20.1167 160.188 20.2524H157.695ZM151.796 21.7547C151.546 21.5004 151.421 21.1545 151.421 20.717C151.421 20.5067 151.455 20.3134 151.523 20.1371C151.59 19.9641 151.685 19.8149 151.807 19.6894C151.928 19.5639 152.07 19.469 152.233 19.4045C152.395 19.3401 152.571 19.3096 152.76 19.3096C153.122 19.3096 153.43 19.4351 153.687 19.6894C153.944 19.9438 154.073 20.2863 154.073 20.717C154.073 21.1477 153.951 21.4936 153.704 21.7513C153.457 22.0091 153.143 22.1379 152.76 22.1379C152.368 22.1345 152.047 22.0091 151.796 21.7547ZM149.906 23.9862C149.943 24.2507 150.034 24.5051 150.176 24.7526C150.318 24.9968 150.508 25.2138 150.741 25.4004C150.975 25.5869 151.249 25.7327 151.563 25.8446C151.878 25.9532 152.226 26.0108 152.612 26.0108C153.133 26.0108 153.579 25.9294 153.948 25.7666C154.316 25.6038 154.621 25.3868 154.854 25.1189C155.088 24.851 155.26 24.539 155.368 24.1897C155.477 23.837 155.534 23.4707 155.534 23.0841V18.0955H154.086V18.7534C153.988 18.5635 153.809 18.3905 153.555 18.2311C153.298 18.0718 152.946 17.9938 152.503 17.9938C152.118 17.9938 151.766 18.065 151.451 18.2108C151.134 18.3532 150.863 18.5499 150.636 18.8009C150.41 19.0518 150.234 19.3401 150.105 19.6691C149.977 19.998 149.913 20.3473 149.913 20.7204C149.913 21.1138 149.98 21.4766 150.112 21.8056C150.244 22.1345 150.427 22.4194 150.657 22.6636C150.887 22.9044 151.161 23.0943 151.479 23.2299C151.796 23.3656 152.138 23.4334 152.51 23.4334C152.916 23.4334 153.251 23.3588 153.505 23.213C153.762 23.0672 153.948 22.901 154.059 22.7178V23.1282C154.059 23.6742 153.931 24.0676 153.674 24.3152C153.417 24.5593 153.051 24.6848 152.574 24.6848C152.213 24.6848 151.918 24.5865 151.692 24.3898C151.465 24.1931 151.326 23.9387 151.272 23.6301L149.906 23.9862ZM145.515 20.466C145.515 20.1405 145.607 19.8658 145.786 19.6419C145.969 19.4181 146.222 19.3062 146.557 19.3062C146.919 19.3062 147.183 19.4113 147.345 19.625C147.508 19.8352 147.589 20.1031 147.589 20.4185V23.6776H149.094V20.1608C149.094 19.859 149.053 19.5707 148.976 19.2994C148.898 19.0281 148.773 18.7941 148.607 18.594C148.441 18.3973 148.231 18.2413 147.978 18.1226C147.724 18.0039 147.423 17.9463 147.078 17.9463C146.777 17.9463 146.476 18.0141 146.178 18.1498C145.881 18.2854 145.644 18.4991 145.471 18.7839V18.0955H144.01V23.681H145.515V20.466ZM139.617 22.5144C139.495 22.3821 139.437 22.2329 139.437 22.0667C139.437 21.8463 139.502 21.6835 139.637 21.5716C139.769 21.4631 139.935 21.3918 140.131 21.3613L141.386 21.168V21.419C141.386 21.6699 141.352 21.8768 141.284 22.0362C141.216 22.199 141.125 22.3312 141.013 22.433C140.902 22.5347 140.77 22.6059 140.625 22.65C140.476 22.6907 140.323 22.7111 140.164 22.7111C139.918 22.7145 139.738 22.6466 139.617 22.5144ZM138.061 22.7891C138.149 22.9892 138.274 23.1689 138.439 23.3215C138.605 23.4775 138.808 23.603 139.045 23.6945C139.282 23.7895 139.549 23.837 139.843 23.837C140.259 23.837 140.601 23.7522 140.868 23.586C141.135 23.4198 141.342 23.2265 141.484 23.0061C141.484 23.1112 141.49 23.2299 141.501 23.3656C141.511 23.4978 141.524 23.603 141.541 23.6776H142.921C142.904 23.5792 142.891 23.4436 142.877 23.274C142.86 23.1045 142.853 22.9417 142.853 22.7925V20.0455C142.853 19.764 142.81 19.4961 142.725 19.2384C142.637 18.9806 142.498 18.7568 142.306 18.5635C142.113 18.3702 141.862 18.2142 141.551 18.0989C141.243 17.9802 140.868 17.9225 140.432 17.9225C140.053 17.9225 139.721 17.9768 139.437 18.0887C139.15 18.1972 138.91 18.3397 138.713 18.5126C138.517 18.6856 138.362 18.8823 138.25 19.1027C138.135 19.3231 138.067 19.5402 138.047 19.7606L139.383 20.0455C139.407 19.8047 139.505 19.5911 139.684 19.4079C139.86 19.2282 140.117 19.1366 140.449 19.1366C140.767 19.1366 141 19.2078 141.156 19.3537C141.311 19.4961 141.389 19.6691 141.389 19.8658C141.389 19.9641 141.358 20.0489 141.298 20.1201C141.237 20.1913 141.128 20.2388 140.97 20.2625L139.6 20.466C139.366 20.5033 139.15 20.5644 138.947 20.6491C138.747 20.7339 138.571 20.8458 138.419 20.9883C138.267 21.1307 138.149 21.3003 138.064 21.4936C137.976 21.6869 137.932 21.9073 137.932 22.1583C137.929 22.3787 137.973 22.589 138.061 22.7891ZM133.538 20.3982C133.555 20.0862 133.65 19.8285 133.833 19.6216C134.015 19.4147 134.262 19.3096 134.58 19.3096C134.942 19.3096 135.206 19.4147 135.368 19.6284C135.531 19.8386 135.612 20.1065 135.612 20.4219V23.681H137.117V20.1608C137.117 19.859 137.076 19.5707 136.992 19.2994C136.907 19.0281 136.782 18.7941 136.613 18.594C136.444 18.3973 136.227 18.2413 135.967 18.1226C135.707 18.0039 135.399 17.9463 135.044 17.9463C134.78 17.9463 134.509 17.9938 134.228 18.0887C133.948 18.1837 133.718 18.3397 133.538 18.5601V15.4604H132.033V23.6776H133.538V20.3982ZM129.104 23.5928C129.53 23.4232 129.896 23.2062 130.203 22.9417C130.508 22.6772 130.755 22.3821 130.937 22.0633C131.123 21.7411 131.252 21.4258 131.326 21.1171L129.865 20.6729C129.811 20.8628 129.73 21.0527 129.615 21.246C129.5 21.4393 129.354 21.6157 129.172 21.7751C128.989 21.9345 128.769 22.0633 128.509 22.1685C128.248 22.2702 127.947 22.3211 127.609 22.3211C127.284 22.3211 126.973 22.2634 126.676 22.1447C126.378 22.026 126.114 21.8565 125.884 21.6326C125.654 21.4088 125.468 21.1341 125.329 20.8051C125.191 20.4762 125.12 20.0964 125.12 19.6657C125.12 19.2112 125.191 18.8145 125.336 18.4753C125.478 18.1362 125.668 17.8547 125.901 17.6343C126.134 17.4138 126.398 17.2511 126.693 17.1391C126.987 17.0306 127.284 16.973 127.585 16.973C127.934 16.973 128.235 17.0238 128.492 17.1222C128.749 17.2205 128.965 17.346 129.141 17.4952C129.317 17.6478 129.459 17.8208 129.568 18.0175C129.672 18.2142 129.75 18.4075 129.794 18.5974L131.265 18.1328C131.181 17.8072 131.049 17.4851 130.863 17.1663C130.677 16.8475 130.437 16.5626 130.139 16.3083C129.841 16.0539 129.48 15.8505 129.053 15.6945C128.627 15.5385 128.137 15.4604 127.589 15.4604C127.051 15.4604 126.537 15.5588 126.043 15.7555C125.549 15.9522 125.113 16.2337 124.734 16.5965C124.355 16.9594 124.058 17.4003 123.834 17.9191C123.611 18.438 123.5 19.0179 123.5 19.6623C123.5 20.3066 123.608 20.8831 123.828 21.3986C124.047 21.9141 124.342 22.3516 124.717 22.7145C125.093 23.0773 125.526 23.3588 126.026 23.5555C126.527 23.7522 127.051 23.8505 127.613 23.8505C128.184 23.8505 128.678 23.7624 129.104 23.5928Z" fill="currentColor"></path><path d="M138.531 8.58994C138.44 8.8409 138.294 9.04438 138.095 9.20377C137.895 9.36316 137.618 9.44116 137.263 9.44116C137.073 9.44116 136.898 9.41064 136.732 9.34621C136.566 9.28177 136.421 9.1936 136.295 9.07829C136.17 8.96638 136.069 8.83073 135.991 8.67473C135.91 8.51873 135.869 8.35255 135.859 8.16942H139.844C139.844 8.15586 139.847 8.0982 139.854 8.00325C139.861 7.90829 139.864 7.80994 139.864 7.70142C139.864 6.80273 139.624 6.09394 139.14 5.57846C138.656 5.06299 137.983 4.80525 137.114 4.80525C136.759 4.80525 136.417 4.87646 136.082 5.01551C135.751 5.15455 135.457 5.35125 135.206 5.60559C134.953 5.85994 134.753 6.16855 134.601 6.53142C134.449 6.89429 134.374 7.29786 134.374 7.74551C134.374 8.21351 134.452 8.63403 134.608 9.00707C134.763 9.37673 134.973 9.69212 135.237 9.94986C135.501 10.2076 135.805 10.4009 136.153 10.5332C136.502 10.6654 136.867 10.7332 137.253 10.7332C137.591 10.7332 137.902 10.6858 138.186 10.5908C138.47 10.4959 138.717 10.3704 138.927 10.211C139.137 10.0516 139.316 9.86508 139.465 9.64803C139.614 9.43099 139.718 9.20377 139.786 8.9596L138.531 8.58994ZM135.893 7.13507C135.9 7.0062 135.934 6.87733 135.991 6.74846C136.049 6.61959 136.13 6.50429 136.235 6.39577C136.339 6.29064 136.468 6.20246 136.62 6.13464C136.772 6.06681 136.945 6.0329 137.141 6.0329C137.351 6.0329 137.537 6.06681 137.689 6.13125C137.845 6.19568 137.973 6.27707 138.075 6.3822C138.176 6.48394 138.25 6.60264 138.301 6.7349C138.349 6.86716 138.379 7.00281 138.386 7.13846H135.893V7.13507ZM131.557 8.07786L129.767 2.51611H128.147L126.372 8.05412L124.9 2.51611H123.246L125.475 10.5637H127.106L128.939 4.83238L130.772 10.5637H132.379L134.598 2.51611H133.001L131.557 8.07786Z" fill="currentColor"></path><path d="M115.856 0H114.655V39.9971H115.856V0Z" fill="currentColor"></path></svg>